HIERARCHY
ROOT Hips
{
	OFFSET 0.000000 0.000000 0.000000 
	CHANNELS 6 Xposition Yposition Zposition Yrotation Zrotation Xrotation 
	JOINT Lumbar
	{
		OFFSET 0.000000 0.000000 0.000000 
		CHANNELS 3 Zrotation Xrotation Yrotation
		JOINT Neck
		{
			OFFSET 0.000000 0.445665 0.000000 
			CHANNELS 3 Zrotation Xrotation Yrotation
			End Site
			{
				OFFSET 0.000000 0.227535 0.000000 
			}
		}
		JOINT RightShoulder
		{
			OFFSET 0.019635 0.377685 0.194865 
			CHANNELS 3 Zrotation Xrotation Yrotation
			JOINT RightElbow
			{
				OFFSET 0.000000 -0.243375 0.000000 
				CHANNELS 2 Zrotation Yrotation
				JOINT RightWrist
				{
					OFFSET 0.000000 -0.264825 0.000000 
					CHANNELS 2 Zrotation Xrotation
					End Site
					{
						OFFSET 0.006600 -0.176220 0.000990 
					}
				}
			}
		}
		JOINT LeftShoulder
		{
			OFFSET 0.019635 0.377685 -0.194865 
			CHANNELS 3 Zrotation Xrotation Yrotation
			JOINT LeftElbow
			{
				OFFSET 0.000000 -0.243375 0.000000 
				CHANNELS 2 Zrotation Yrotation
				JOINT LeftWrist
				{
					OFFSET 0.000000 -0.264825 0.000000 
					CHANNELS 2 Zrotation Xrotation
					End Site
					{
						OFFSET 0.006600 -0.176220 -0.000990 
					}
				}
			}
		}
	}
	JOINT RightHip
	{
		OFFSET 0.052140 -0.069960 0.075570 
		CHANNELS 3 Zrotation Xrotation Yrotation
		JOINT RightKnee
		{
			OFFSET 0.000000 -0.402270 0.000000 
			CHANNELS 1 Zrotation
			JOINT RightAnkle
			{
				OFFSET 0.000000 -0.404085 0.000000 
				CHANNELS 3 Zrotation Xrotation Yrotation
				End Site
				{
					OFFSET 0.204105 -0.089430 0.008415 
				}
			}
		}
	}
	JOINT LeftHip
	{
		OFFSET 0.052140 -0.069960 -0.075570 
		CHANNELS 3 Zrotation Xrotation Yrotation
		JOINT LeftKnee
		{
			OFFSET 0.000000 -0.402270 0.000000 
			CHANNELS 1 Zrotation
			JOINT LeftAnkle
			{
				OFFSET 0.000000 -0.404085 0.000000 
				CHANNELS 3 Zrotation Xrotation Yrotation
				End Site
				{
					OFFSET 0.204105 -0.089430 -0.008415 
				}
			}
		}
	}
}
MOTION
Frames: 32
Frame Time: 0.02
1.58819 0.9421 0.08384 524.59638 0 -0.54487 2.43797 -0.60717 5.74372 -52.12613 -1.59029 3.00567 62.28278 -53.19238 -12.7485 21.3286 95.97979 -8.0324 -9.47313 38.43509 16.58413 13.18885 8.89774 -78.49373 -3.02092 0.82229 4.05805 0.38472 10.46895 -52.14168 -16.29031 -2.22385 -2.41864 2.88558 -1.29197 14.96991 -2.94067 -8.89923 2.84386 6.84906
1.57526 0.94334 0.08734 524.65284 0 -0.8325 2.46044 -0.51809 4.79671 -53.11242 -0.63868 3.8737 65.39225 -54.47405 -5.82446 22.21305 100.22281 -9.94358 -9.82778 40.71763 16.05273 11.76491 9.5352 -78.54585 -3.14822 1.6361 6.00039 0.59442 9.48934 -54.35364 -15.77068 -2.25139 -3.64023 2.50491 -1.32396 14.77229 -3.45129 -8.36487 2.93633 7.11832
1.5629 0.94482 0.09017 524.95445 0 -1.23943 2.52334 -0.38301 3.45338 -54.38499 0.80088 5.3041 69.65033 -56.61071 3.27788 23.56002 104.86761 -12.08186 -10.15668 43.30417 14.81956 10.76993 10.15634 -78.6236 -3.26715 2.47731 7.77594 1.04531 8.49043 -55.84437 -14.56505 -2.33694 -5.70147 2.1757 -1.21297 14.2551 -3.97144 -7.72302 3.04737 7.44877
1.5503 0.94619 0.09326 525.14842 0 -1.59572 2.56946 -0.26031 2.29192 -55.50474 2.00951 6.46107 73.36611 -58.31797 11.26502 24.78179 108.85003 -13.898 -10.491 45.71277 13.93423 9.57902 10.78528 -78.69532 -3.39086 3.29719 9.61 1.39616 7.52048 -57.57798 -13.69415 -2.3899 -7.35557 1.82035 -1.16033 13.89836 -4.47942 -7.13289 3.147 7.73445
1.5376 0.94758 0.09654 525.33219 0 -1.94051 2.60562 -0.16986 1.11541 -56.72452 3.26174 7.69641 77.18353 -60.20699 19.81718 25.6709 114.79212 -16.62357 -10.86258 48.29894 12.92571 8.35085 11.41975 -78.74915 -3.50891 4.16145 11.53357 1.71044 6.4477 -59.69065 -12.73055 -2.46866 -9.11367 1.47962 -1.13443 13.48457 -5.02144 -6.5241 3.25917 8.08697
1.52526 0.94897 0.09927 525.59198 0 -2.33452 2.67297 -0.00346 -0.11764 -57.79979 4.53347 8.89715 81.04248 -61.91221 27.67607 27.345 116.84455 -17.53185 -11.13998 50.58323 12.01201 7.31421 12.03562 -78.84374 -3.63704 4.93667 13.22369 2.1541 5.59216 -60.83004 -11.7981 -2.50827 -10.85096 1.11893 -1.02114 13.11115 -5.49311 -5.93151 3.34992 8.31723
1.51372 0.95038 0.10062 526.018 0 -2.85578 2.82131 0.37031 -1.45063 -58.43731 5.78508 9.9115 84.89852 -62.9585 33.32882 31.16662 107.15566 -13.15259 -11.24588 51.96561 11.4757 6.75049 12.60974 -79.04915 -3.7987 5.46471 14.32184 2.92791 5.33026 -59.51225 -11.08652 -2.41787 -12.38776 0.69733 -0.67955 12.92457 -5.78435 -5.40555 3.37345 8.18716
1.50253 0.95177 0.10144 526.50893 0 -3.41824 2.99918 0.81683 -2.8186 -58.91327 7.03066 10.8631 88.7244 -63.77895 38.15961 35.74057 93.69168 -6.97666 -11.24484 53.03109 11.06833 6.36277 13.16357 -79.29315 -3.97031 5.90014 15.18576 3.81733 5.29187 -57.22717 -10.43482 -2.2875 -13.86402 0.2521 -0.25905 12.78887 -6.00128 -4.9013 3.37534 7.93376
1.49121 0.95312 0.10251 526.95819 0 -3.94833 3.16105 1.2238 -4.14337 -59.44281 8.24943 11.81296 92.45899 -64.66438 43.20937 39.90898 82.56188 -1.76175 -11.23478 54.23664 10.63893 5.8681 13.72227 -79.51569 -4.13534 6.37372 16.14778 4.63306 5.16096 -55.34787 -9.77666 -2.18037 -15.32891 -0.18696 0.11117 12.63098 -6.24205 -4.39083 3.38955 7.74276
1.4798 0.95468 0.10355 527.46534 0 -4.54082 3.33552 1.6599 -5.59763 -60.06715 9.611 12.9101 96.68394 -65.7388 48.99681 44.37023 68.88799 4.05869 -11.45566 55.47043 10.03326 5.49875 14.29955 -79.75556 -4.30902 6.86559 17.14219 5.54739 4.99167 -53.58807 -9.00821 -2.05365 -16.98852 -0.60434 0.5477 12.45917 -6.52613 -3.86102 3.39427 7.52783
1.46866 0.95578 0.10452 527.86677 0 -5.01081 3.48978 2.05189 -6.78488 -60.45064 10.6661 13.67836 99.85665 -66.35463 53.01308 48.38441 59.5447 9.04323 -11.18489 56.56517 9.83132 4.9081 14.83268 -79.96843 -4.4668 7.29625 18.01228 6.27957 4.95468 -51.35699 -8.49117 -1.95774 -18.21546 -1.07387 0.86241 12.33128 -6.7009 -3.37818 3.41291 7.33163
1.45818 0.95565 0.10543 527.93738 0 -5.1383 3.58497 2.30499 -7.2279 -60.21767 10.88488 13.5502 100.20033 -65.75694 52.4236 51.05722 63.65753 11.31579 -9.45867 57.35843 10.7421 3.63447 15.25555 -80.09488 -4.58184 7.58688 18.62396 6.48838 5.23825 -48.08126 -8.67034 -1.95382 -18.27505 -1.67519 0.82612 12.32391 -6.60469 -3.01933 3.47904 7.22564
1.44795 0.95504 0.10627 527.90323 0 -5.13941 3.65783 2.51081 -7.39884 -59.74468 10.79177 13.09124 99.46819 -64.7024 50.0551 53.23553 72.15224 12.67813 -7.26464 58.01926 12.05192 2.13559 15.63352 -80.19333 -4.68009 7.81803 19.11355 6.50708 5.64563 -44.36512 -9.10141 -1.98227 -17.89554 -2.3292 0.6633 12.35797 -6.39955 -2.70756 3.55908 7.14067
1.4376 0.95461 0.10714 527.92979 0 -5.1939 3.7382 2.73758 -7.6911 -59.37422 10.83299 12.78309 99.17634 -63.85334 48.43272 55.58954 78.2588 14.43669 -5.36623 58.73707 13.16439 0.75651 16.02773 -80.30585 -4.7835 8.07178 19.64267 6.60658 5.98985 -40.84024 -9.40893 -1.99781 -17.70358 -2.96413 0.55412 12.36751 -6.23476 -2.37511 3.63021 7.04064
1.42733 0.95433 0.10802 527.90001 0 -5.26692 3.83097 2.96921 -7.99411 -59.02616 10.90411 12.4705 99.08607 -63.00293 47.03903 58.18455 85.89814 16.33735 -3.11355 59.46136 14.35196 -0.69045 16.43878 -80.41335 -4.89696 8.33994 20.2338 6.73439 6.3706 -37.31599 -9.75387 -2.00544 -17.55743 -3.58111 0.46248 12.40438 -6.10227 -2.04053 3.71168 6.96057
1.41692 0.95364 0.10887 527.96618 0 -5.2709 3.89193 3.17851 -8.21031 -58.57623 10.84077 12.09012 98.32496 -62.0535 44.76615 60.14097 91.44832 17.69507 -1.48909 60.14002 15.47189 -2.051 16.80437 -80.52503 -4.9863 8.56651 20.6662 6.75591 6.70219 -33.7019 -10.08319 -2.03644 -17.21637 -4.24541 0.30521 12.3914 -5.88234 -1.72103 3.77501 6.84428
1.40613 0.95192 0.10974 528.28499 0 -5.11383 3.87293 3.3375 -8.24592 -57.90668 10.46546 11.5961 95.93611 -60.90915 40.42179 60.52694 90.0703 17.82809 -1.71304 60.76596 16.34557 -3.12737 17.05492 -80.64749 -5.00485 8.68106 20.7229 6.53551 6.86109 -29.92912 -10.27959 -2.13568 -16.40698 -5.04682 -0.01975 12.24895 -5.40748 -1.43431 3.78625 6.63425
1.39517 0.94982 0.11059 528.71061 0 -4.89174 3.82214 3.47538 -8.20436 -57.14335 9.9686 11.04693 92.917 -59.68822 35.27317 60.26826 86.48296 17.42561 -2.58481 61.34379 17.12976 -4.10867 17.26118 -80.77645 -5.00097 8.75803 20.61946 6.21363 6.96504 -26.09297 -10.45546 -2.25566 -15.42291 -5.89024 -0.40327 12.05119 -4.85646 -1.16064 3.77853 6.38573
1.38426 0.94792 0.11141 529.11196 0 -4.69997 3.78411 3.6226 -8.20327 -56.42156 9.53874 10.52807 90.21107 -58.52515 30.54785 60.25596 83.97168 17.22755 -3.16263 61.9193 17.92923 -5.12755 17.48851 -80.90706 -5.01309 8.86089 20.56872 5.93361 7.09909 -22.29844 -10.66045 -2.35827 -14.54486 -6.70171 -0.74931 11.86661 -4.36675 -0.87902 3.77878 6.14776
1.37348 0.94588 0.11239 529.4076 0 -4.50026 3.75222 3.769 -8.17143 -55.69497 9.04899 9.9754 87.35251 -57.24845 25.51388 60.43089 81.2692 17.1707 -3.72725 62.59492 18.84961 -6.17585 17.71142 -81.01681 -5.00118 8.92612 20.5971 5.66294 7.22145 -18.41957 -10.79549 -2.49417 -13.54283 -7.56958 -1.14674 11.73427 -3.75966 -0.60717 3.78251 5.93901
1.36238 0.94405 0.11301 529.94968 0 -4.30365 3.70056 3.91308 -8.18698 -54.96037 8.65837 9.48447 84.67889 -56.19647 20.95762 60.05993 78.43085 16.69491 -4.47291 63.04883 19.49201 -7.13998 17.93218 -81.17254 -5.03286 9.05942 20.42579 5.35374 7.34658 -14.72501 -11.06206 -2.56692 -12.75849 -8.32895 -1.44796 11.47906 -3.38143 -0.31798 3.77394 5.66095
1.3505 0.94287 0.11274 531.15031 0 -4.12967 3.59977 4.05341 -8.36892 -54.21851 8.57964 9.17838 82.65033 -55.78404 17.90394 58.42082 75.32161 15.27952 -5.6167 62.93247 19.38379 -7.87014 18.16962 -81.4477 -5.20154 9.40798 19.72969 4.9416 7.55093 -11.40493 -11.74855 -2.4452 -12.66133 -8.78033 -1.4806 10.90052 -3.64645 0.02666 3.73969 5.19356
1.33829 0.94193 0.11208 532.59469 0 -3.96241 3.48075 4.1933 -8.59913 -53.47469 8.6047 8.93788 80.83738 -55.6024 15.36945 56.24361 72.20013 13.45339 -6.91148 62.58917 18.99784 -8.5213 18.40388 -81.76961 -5.41252 9.8226 18.84092 4.49917 7.74869 -8.30207 -12.55831 -2.26153 -12.78361 -9.12017 -1.41133 10.19936 -4.14688 0.38841 3.69321 4.6597
1.32617 0.9409 0.11153 533.92562 0 -3.79348 3.37168 4.33462 -8.79814 -52.73816 8.57853 8.6684 78.94591 -55.31763 12.61615 54.25942 69.36329 11.75792 -8.10307 62.33133 18.74018 -9.22512 18.63279 -82.07489 -5.59737 10.19624 18.04955 4.0855 7.91037 -5.20144 -13.27506 -2.11633 -12.77894 -9.50992 -1.38101 9.55277 -4.54421 0.73992 3.64957 4.16011
1.31427 0.93978 0.11127 535.27277 0 -3.6149 3.25436 4.46797 -9.03482 -51.97071 8.56579 8.39308 76.95526 -55.02371 9.76475 52.46244 65.32134 10.26269 -9.46541 62.14849 18.4707 -9.85943 18.89111 -82.36324 -5.81202 10.6175 17.21188 3.60463 8.23416 -1.67532 -14.14287 -1.92963 -12.8819 -9.90563 -1.38519 8.90998 -4.9202 1.10216 3.61581 3.63924
1.30185 0.9389 0.1103 536.64108 0 -3.46072 3.15041 4.62061 -9.20374 -51.26904 8.55046 8.14653 75.22361 -54.80316 7.24728 50.16561 63.75528 8.28119 -10.49645 61.7535 18.16124 -10.61545 19.08512 -82.69497 -5.97315 10.95234 16.42583 3.25815 8.2207 0.91615 -14.73123 -1.81271 -12.81628 -10.26042 -1.29091 8.22982 -5.40032 1.44526 3.56 3.15095
1.28816 0.93855 0.10751 538.02073 0 -3.35673 3.08709 4.80532 -9.18977 -50.74582 8.51102 7.96206 74.22263 -54.74269 5.57333 46.5435 69.55173 4.87747 -10.60084 60.85119 17.80698 -11.77116 19.12704 -83.15941 -5.99203 11.0619 15.84052 3.28926 7.2682 0.94256 -14.46799 -1.91814 -12.2237 -10.5402 -0.96333 7.48619 -6.0898 1.73969 3.43608 2.73834
1.27396 0.93843 0.10402 539.41004 0 -3.28018 3.03801 5.01345 -9.10332 -50.29045 8.46442 7.80509 73.46694 -54.74548 4.21533 42.45502 77.75807 1.034 -10.35933 59.73918 17.42285 -13.04211 19.09974 -83.66105 -5.95305 11.07697 15.31251 3.45762 5.97971 0.04227 -13.92821 -2.09322 -11.4568 -10.77943 -0.53753 6.70809 -6.88178 2.01242 3.29237 2.36651
1.25996 0.93823 0.10084 540.78667 0 -3.20174 2.98326 5.2251 -9.04002 -49.80645 8.41625 7.63634 72.5556 -54.71117 2.68184 38.63307 84.52296 -2.4861 -10.25573 58.70831 17.05445 -14.23445 19.08847 -84.12999 -5.92987 11.11608 14.75188 3.56399 4.85003 -0.40947 -13.54827 -2.22666 -10.77502 -11.03127 -0.14718 5.93915 -7.63869 2.29011 3.16451 1.9965
1.24606 0.93792 0.0977 542.20841 0 -3.07928 2.9251 5.37739 -9.01985 -49.31142 8.39213 7.46571 71.83164 -54.72195 1.28986 34.55956 92.72844 -6.53846 -10.23672 57.72918 16.6675 -15.54362 19.14314 -84.66837 -5.95121 11.23701 14.21239 3.66663 3.68953 -0.9838 -13.03005 -2.39968 -10.07362 -11.30791 0.20879 5.1916 -8.34859 2.59055 3.00731 1.53905
1.23185 0.93791 0.0943 543.53335 0 -3.05438 2.87686 5.6583 -8.89177 -48.85751 8.31469 7.30609 70.78075 -54.64855 -0.31501 30.90875 98.53053 -9.58613 -9.96047 56.59555 16.31536 -16.62676 19.04288 -85.06893 -5.86708 11.16455 13.64481 3.81125 2.51946 -1.52086 -12.73047 -2.50818 -9.37169 -11.51958 0.65729 4.39512 -9.18595 2.83641 2.90664 1.27322
1.21684 0.93869 0.09039 544.60412 0 -3.29665 2.85912 6.29318 -8.48548 -48.48351 8.09341 7.15813 68.70032 -54.34593 -2.69719 28.52449 96.89808 -9.70517 -9.02999 55.08693 16.07075 -17.15264 18.54217 -85.09161 -5.49258 10.57792 12.9888 4.02796 1.35538 -1.72132 -13.11914 -2.41683 -8.68762 -11.60428 1.34594 3.45481 -10.28019 2.95057 2.96694 1.53671
